<svg xmlns="http://www.w3.org/2000/svg" viewBox="0 0 48 48"><rect width="48" height="48" rx="4" fill="#F7DF1E"/><path d="M13 35l2.5-1.5c.5.86 1 1.6 2 1.6 1 0 1.7-.4 1.7-2V21h3v12.2c0 3.2-1.9 4.7-4.6 4.7-2.5 0-3.9-1.3-4.6-2.9zm11 0l2.5-1.5c.6 1 1.4 1.8 2.8 1.8 1.2 0 2-.6 2-1.4 0-1-.8-1.4-2.1-2l-.7-.3c-2.1-.9-3.5-2-3.5-4.4 0-2.2 1.7-3.8 4.3-3.8 1.9 0 3.2.66 4.2 2.4l-2.3 1.5c-.5-.9-1-1.3-1.9-1.3-.86 0-1.4.55-1.4 1.3 0 .9.55 1.3 1.8 1.8l.7.3c2.5 1.1 3.9 2.1 3.9 4.5 0 2.6-2 4-4.7 4-2.6 0-4.3-1.3-5.1-2.9z" fill="#323330"/></svg>
